<mxfile host="app.diagrams.net" agent="Mozilla/5.0 (Windows NT 10.0; Win64; x64) AppleWebKit/537.36 (KHTML, like Gecko) Chrome/131.0.0.0 Safari/537.36" version="24.8.8">
  <diagram name="Page-1" id="-oW64Zfjjynd12sH0cB9">
    <mxGraphModel dx="1050" dy="522" grid="1" gridSize="10" guides="1" tooltips="1" connect="1" arrows="1" fold="1" page="1" pageScale="1" pageWidth="600" pageHeight="500" math="0" shadow="0">
      <root>
        <mxCell id="0" />
        <mxCell id="1" parent="0" />
        <mxCell id="liHYtyb2RXSRpZGwheBK-1" value="" style="ellipse;html=1;shape=startState;fillColor=#000000;strokeColor=#000000;" vertex="1" parent="1">
          <mxGeometry x="150" y="35" width="30" height="30" as="geometry" />
        </mxCell>
        <mxCell id="liHYtyb2RXSRpZGwheBK-2" value="" style="edgeStyle=orthogonalEdgeStyle;html=1;verticalAlign=bottom;endArrow=open;endSize=8;strokeColor=#000000;rounded=0;entryX=0.5;entryY=0;entryDx=0;entryDy=0;" edge="1" parent="1" source="liHYtyb2RXSRpZGwheBK-1" target="liHYtyb2RXSRpZGwheBK-5">
          <mxGeometry relative="1" as="geometry">
            <mxPoint x="244" y="135" as="targetPoint" />
            <Array as="points">
              <mxPoint x="165" y="140" />
              <mxPoint x="165" y="140" />
            </Array>
          </mxGeometry>
        </mxCell>
        <mxCell id="liHYtyb2RXSRpZGwheBK-3" value="New Movie Added" style="edgeLabel;html=1;align=center;verticalAlign=middle;resizable=0;points=[];" vertex="1" connectable="0" parent="liHYtyb2RXSRpZGwheBK-2">
          <mxGeometry x="-0.2914" y="5" relative="1" as="geometry">
            <mxPoint x="-5" y="10" as="offset" />
          </mxGeometry>
        </mxCell>
        <mxCell id="liHYtyb2RXSRpZGwheBK-4" style="edgeStyle=orthogonalEdgeStyle;rounded=0;orthogonalLoop=1;jettySize=auto;html=1;exitX=1;exitY=0.5;exitDx=0;exitDy=0;entryX=0;entryY=0.5;entryDx=0;entryDy=0;" edge="1" parent="1" source="liHYtyb2RXSRpZGwheBK-5" target="liHYtyb2RXSRpZGwheBK-8">
          <mxGeometry relative="1" as="geometry" />
        </mxCell>
        <mxCell id="liHYtyb2RXSRpZGwheBK-18" style="edgeStyle=orthogonalEdgeStyle;rounded=0;orthogonalLoop=1;jettySize=auto;html=1;exitX=0.75;exitY=1;exitDx=0;exitDy=0;entryX=0;entryY=0;entryDx=0;entryDy=0;" edge="1" parent="1" source="liHYtyb2RXSRpZGwheBK-5" target="liHYtyb2RXSRpZGwheBK-13">
          <mxGeometry relative="1" as="geometry" />
        </mxCell>
        <mxCell id="liHYtyb2RXSRpZGwheBK-20" style="edgeStyle=orthogonalEdgeStyle;rounded=0;orthogonalLoop=1;jettySize=auto;html=1;exitX=0.5;exitY=1;exitDx=0;exitDy=0;entryX=0.5;entryY=0;entryDx=0;entryDy=0;" edge="1" parent="1" source="liHYtyb2RXSRpZGwheBK-5" target="liHYtyb2RXSRpZGwheBK-11">
          <mxGeometry relative="1" as="geometry" />
        </mxCell>
        <mxCell id="liHYtyb2RXSRpZGwheBK-22" value="Book Ticket&lt;div&gt;(All seats taken)&lt;/div&gt;" style="edgeLabel;html=1;align=center;verticalAlign=middle;resizable=0;points=[];" vertex="1" connectable="0" parent="liHYtyb2RXSRpZGwheBK-20">
          <mxGeometry x="0.3623" y="-2" relative="1" as="geometry">
            <mxPoint as="offset" />
          </mxGeometry>
        </mxCell>
        <mxCell id="liHYtyb2RXSRpZGwheBK-5" value="Available" style="html=1;whiteSpace=wrap;" vertex="1" parent="1">
          <mxGeometry x="110" y="170" width="110" height="50" as="geometry" />
        </mxCell>
        <mxCell id="liHYtyb2RXSRpZGwheBK-6" style="edgeStyle=orthogonalEdgeStyle;rounded=0;orthogonalLoop=1;jettySize=auto;html=1;exitX=0.25;exitY=1;exitDx=0;exitDy=0;entryX=0.25;entryY=0;entryDx=0;entryDy=0;" edge="1" parent="1" source="liHYtyb2RXSRpZGwheBK-8" target="liHYtyb2RXSRpZGwheBK-13">
          <mxGeometry relative="1" as="geometry" />
        </mxCell>
        <mxCell id="liHYtyb2RXSRpZGwheBK-7" style="edgeStyle=orthogonalEdgeStyle;rounded=0;orthogonalLoop=1;jettySize=auto;html=1;exitX=0;exitY=0.25;exitDx=0;exitDy=0;entryX=1;entryY=0.25;entryDx=0;entryDy=0;" edge="1" parent="1" source="liHYtyb2RXSRpZGwheBK-8" target="liHYtyb2RXSRpZGwheBK-5">
          <mxGeometry relative="1" as="geometry" />
        </mxCell>
        <mxCell id="liHYtyb2RXSRpZGwheBK-8" value="Cancelled" style="html=1;whiteSpace=wrap;" vertex="1" parent="1">
          <mxGeometry x="420" y="170" width="110" height="50" as="geometry" />
        </mxCell>
        <mxCell id="liHYtyb2RXSRpZGwheBK-9" value="Reopen Show" style="text;html=1;align=center;verticalAlign=middle;resizable=0;points=[];autosize=1;strokeColor=none;fillColor=none;" vertex="1" parent="1">
          <mxGeometry x="255" y="190" width="100" height="30" as="geometry" />
        </mxCell>
        <mxCell id="liHYtyb2RXSRpZGwheBK-10" style="edgeStyle=orthogonalEdgeStyle;rounded=0;orthogonalLoop=1;jettySize=auto;html=1;exitX=1;exitY=0.5;exitDx=0;exitDy=0;entryX=0;entryY=0.75;entryDx=0;entryDy=0;" edge="1" parent="1" source="liHYtyb2RXSRpZGwheBK-11" target="liHYtyb2RXSRpZGwheBK-13">
          <mxGeometry relative="1" as="geometry" />
        </mxCell>
        <mxCell id="liHYtyb2RXSRpZGwheBK-11" value="Fully Booked" style="html=1;whiteSpace=wrap;" vertex="1" parent="1">
          <mxGeometry x="110" y="358" width="110" height="50" as="geometry" />
        </mxCell>
        <mxCell id="liHYtyb2RXSRpZGwheBK-12" style="edgeStyle=orthogonalEdgeStyle;rounded=0;orthogonalLoop=1;jettySize=auto;html=1;exitX=0.25;exitY=1;exitDx=0;exitDy=0;entryX=1;entryY=0.5;entryDx=0;entryDy=0;" edge="1" parent="1" source="liHYtyb2RXSRpZGwheBK-13" target="liHYtyb2RXSRpZGwheBK-14">
          <mxGeometry relative="1" as="geometry" />
        </mxCell>
        <mxCell id="liHYtyb2RXSRpZGwheBK-13" value="Archived" style="html=1;whiteSpace=wrap;" vertex="1" parent="1">
          <mxGeometry x="420" y="348" width="110" height="50" as="geometry" />
        </mxCell>
        <mxCell id="liHYtyb2RXSRpZGwheBK-14" value="" style="ellipse;html=1;shape=endState;fillColor=#000000;strokeColor=#000000;" vertex="1" parent="1">
          <mxGeometry x="275" y="420" width="30" height="30" as="geometry" />
        </mxCell>
        <mxCell id="liHYtyb2RXSRpZGwheBK-15" value="Archive Movie" style="text;html=1;align=center;verticalAlign=middle;resizable=0;points=[];autosize=1;strokeColor=none;fillColor=none;" vertex="1" parent="1">
          <mxGeometry x="440" y="260" width="100" height="30" as="geometry" />
        </mxCell>
        <mxCell id="liHYtyb2RXSRpZGwheBK-16" value="Cancel Show" style="text;html=1;align=center;verticalAlign=middle;resizable=0;points=[];autosize=1;strokeColor=none;fillColor=none;" vertex="1" parent="1">
          <mxGeometry x="265" y="158" width="90" height="30" as="geometry" />
        </mxCell>
        <mxCell id="liHYtyb2RXSRpZGwheBK-17" value="Archive Movie" style="text;html=1;align=center;verticalAlign=middle;resizable=0;points=[];autosize=1;strokeColor=none;fillColor=none;" vertex="1" parent="1">
          <mxGeometry x="240" y="358" width="100" height="30" as="geometry" />
        </mxCell>
        <mxCell id="liHYtyb2RXSRpZGwheBK-19" value="&lt;span style=&quot;color: rgb(0, 0, 0); font-family: Helvetica; font-size: 12px; font-style: normal; font-variant-ligatures: normal; font-variant-caps: normal; font-weight: 400; letter-spacing: normal; orphans: 2; text-align: center; text-indent: 0px; text-transform: none; widows: 2; word-spacing: 0px; -webkit-text-stroke-width: 0px; white-space: nowrap; background-color: rgb(251, 251, 251); text-decoration-thickness: initial; text-decoration-style: initial; text-decoration-color: initial; display: inline !important; float: none;&quot;&gt;Archive Movie&lt;/span&gt;" style="text;whiteSpace=wrap;html=1;" vertex="1" parent="1">
          <mxGeometry x="250" y="280" width="110" height="40" as="geometry" />
        </mxCell>
      </root>
    </mxGraphModel>
  </diagram>
</mxfile>
